# xmcd
#
# Track frame offsets:
#	150
#	14174
#	33675
#	47838
#	63195
#	75548
#	90964
#	108014
#	120908
#	133260
#	147670
#	162510
#
# Disc length: 2340 seconds
#
# Revision: 1
# Processed by: cddbd v1.5.2PL0 Copyright (c) Steve Scherf et al.
# Submitted via: audiograbber 1.83.01
#
DISCID=9f09220c
DTITLE=JUAN GABRIEL - EXITOS
DYEAR=1900
DGENRE=KARAOKE
TTITLE0=LA FARSANTE
TTITLE1=COSTUMBRES
TTITLE2=YA LO SE QUE TU TE VAS
TTITLE3=LAGRIMAS Y LLUVIA
TTITLE4=ME NACE DEL CORAZON
TTITLE5=DIFERENTES
TTITLE6=TE LO PIDO POR FAVOR
TTITLE7=FUE UN PLACER CONOCERTE
TTITLE8=AESE Y TERCIA DE REYES
TTITLE9=JAMAS ME CANSARE DE TI
TTITLE10=CUANDO QUIERAS DEJAME
TTITLE11=TENIAS QUE SER TAN CRUEL
EXTD=
EXTT0=
EXTT1=
EXTT2=
EXTT3=
EXTT4=
EXTT5=
EXTT6=
EXTT7=
EXTT8=
EXTT9=
EXTT10=
EXTT11=
PLAYORDER=
